<svg width="21" height="16" viewBox="0 0 21 16" fill="none" xmlns="http://www.w3.org/2000/svg">
    <path d="M12.311 16C12.2098 16.0006 12.1094 15.9804 12.0156 15.9406C11.9219 15.9008 11.8366 15.8422 11.7647 15.768C11.6926 15.6937 11.6353 15.6052 11.5963 15.5077C11.5572 15.4103 11.5371 15.3057 11.5371 15.2002C11.5371 15.0946 11.5572 14.99 11.5963 14.8926C11.6353 14.7951 11.6926 14.7066 11.7647 14.6323L18.1512 8.00163L11.7647 1.37099C11.6198 1.22038 11.5384 1.01611 11.5384 0.803108C11.5384 0.590111 11.6198 0.385837 11.7647 0.235225C11.9096 0.084613 12.1061 0 12.311 0C12.5159 0 12.7124 0.084613 12.8573 0.235225L19.7824 7.43375C19.8545 7.5081 19.9118 7.59656 19.9509 7.69403C19.9899 7.7915 20.01 7.89604 20.01 8.00163C20.01 8.10722 19.9899 8.21176 19.9509 8.30923C19.9118 8.40669 19.8545 8.49516 19.7824 8.56951L12.8573 15.768C12.7854 15.8422 12.7002 15.9008 12.6064 15.9406C12.5127 15.9804 12.4123 16.0006 12.311 16Z" fill="#2C2C2C"/>
    <path d="M19.2364 8.80133H0.769454C0.565382 8.80133 0.369668 8.71706 0.225368 8.56707C0.0810672 8.41707 0 8.21363 0 8.0015C0 7.78937 0.0810672 7.58593 0.225368 7.43593C0.369668 7.28593 0.565382 7.20166 0.769454 7.20166H19.2364C19.4404 7.20166 19.6361 7.28593 19.7804 7.43593C19.9247 7.58593 20.0058 7.78937 20.0058 8.0015C20.0058 8.21363 19.9247 8.41707 19.7804 8.56707C19.6361 8.71706 19.4404 8.80133 19.2364 8.80133Z" fill="#2C2C2C"/>
</svg>
