<svg width="24" height="24" viewBox="0 0 24 24" fill="none" xmlns="http://www.w3.org/2000/svg">
    <g clip-path="url(#clip0_408_2453)">
        <path d="M12 20.7188C16.8094 20.7188 20.7188 16.8094 20.7188 12C20.7188 7.19062 16.8094 3.28125 12 3.28125C7.19062 3.28125 3.28125 7.19062 3.28125 12C3.28125 16.8094 7.19062 20.7188 12 20.7188ZM5.25 15.4734L8.79375 15.4453C9.1875 16.8656 9.84844 18.2437 10.7484 19.4812C8.34375 19.0875 6.33281 17.5547 5.25 15.4734ZM9.69375 9.60938H14.1094C14.4328 11.1562 14.4328 12.7453 14.1375 14.2922L9.69375 14.3203C9.37031 12.7594 9.37031 11.1562 9.69375 9.60938ZM11.9016 19.1578C11.0156 18.0188 10.3687 16.7672 9.975 15.4453L13.8422 15.4172C13.4344 16.7391 12.7875 18.0047 11.9016 19.1578ZM13.0266 19.5234C13.9547 18.2578 14.6156 16.8656 15.0094 15.4031L18.7922 15.375C17.6953 17.5828 15.5578 19.1719 13.0266 19.5234ZM19.5938 12C19.5938 12.7875 19.4672 13.5469 19.2562 14.25L15.2766 14.2781C15.5578 12.7312 15.5437 11.1562 15.2484 9.60938H19.2C19.4531 10.3547 19.5938 11.1703 19.5938 12ZM18.7219 8.48438H14.9812C14.5734 7.07812 13.9266 5.71406 13.0266 4.47656C15.5156 4.81406 17.6109 6.34687 18.7219 8.48438ZM13.8141 8.48438H9.98906C10.3969 7.19062 11.0297 5.96719 11.9016 4.84219C12.7734 5.96719 13.4062 7.19062 13.8141 8.48438ZM10.7484 4.51875C9.8625 5.74219 9.21563 7.07812 8.82188 8.48438H5.27813C6.36094 6.41719 8.35781 4.9125 10.7484 4.51875ZM8.55469 9.60938C8.25938 11.1703 8.25938 12.7594 8.54063 14.3203L4.78594 14.3484C4.53281 13.6031 4.40625 12.8156 4.40625 12C4.40625 11.1703 4.54688 10.3547 4.8 9.60938H8.55469Z" fill="white"/>
    </g>
    <defs>
        <clipPath id="clip0_408_2453">
            <rect width="18" height="18" fill="white" transform="translate(3 3)"/>
        </clipPath>
    </defs>
</svg>
