<svg width="21" height="16" viewBox="0 0 21 16" fill="none" xmlns="http://www.w3.org/2000/svg">
    <path d="M7.69923 1.59868e-05C7.8005 -0.000593402 7.90088 0.0195825 7.99463 0.0593861C8.08838 0.0991896 8.17364 0.157839 8.24554 0.231969C8.31766 0.306324 8.37491 0.394786 8.41397 0.492253C8.45303 0.589721 8.47315 0.694263 8.47315 0.799851C8.47315 0.905439 8.45303 1.00998 8.41397 1.10745C8.37491 1.20492 8.31766 1.29338 8.24554 1.36773L1.85907 7.99837L8.24554 14.629C8.39043 14.7796 8.47183 14.9839 8.47183 15.1969C8.47183 15.4099 8.39043 15.6142 8.24554 15.7648C8.10065 15.9154 7.90414 16 7.69923 16C7.49432 16 7.29781 15.9154 7.15292 15.7648L0.227832 8.56625C0.155712 8.4919 0.0984675 8.40344 0.0594031 8.30597C0.0203387 8.2085 0.000227665 8.10396 0.000227674 7.99837C0.000227683 7.89278 0.0203388 7.78824 0.0594032 7.69077C0.0984676 7.59331 0.155712 7.50484 0.227832 7.43049L7.15292 0.231969C7.22482 0.157839 7.31008 0.0991895 7.40383 0.059386C7.49758 0.0195825 7.59797 -0.00059342 7.69923 1.59868e-05Z" fill="#2C2C2C"/>
    <path d="M0.773903 7.19867L19.2408 7.19867C19.4449 7.19867 19.6406 7.28294 19.7849 7.43294C19.9292 7.58293 20.0103 7.78638 20.0103 7.99851C20.0103 8.21064 19.9292 8.41408 19.7849 8.56407C19.6406 8.71407 19.4449 8.79834 19.2408 8.79834L0.773903 8.79834C0.56983 8.79834 0.374117 8.71407 0.229816 8.56407C0.0855141 8.41407 0.00444799 8.21063 0.00444801 7.9985C0.00444803 7.78637 0.0855142 7.58293 0.229817 7.43293C0.374117 7.28294 0.56983 7.19867 0.773903 7.19867Z" fill="#2C2C2C"/>
</svg>
