<svg width="17" height="27" viewBox="0 0 17 27" fill="none" xmlns="http://www.w3.org/2000/svg">
    <g clip-path="url(#clip0_420_1204)">
        <path d="M0 15.3176L4.3044 8.18443C5.33966 7.32894 6.49786 8.22106 7.6308 8.29726C8.24547 8.33852 8.91951 8.27621 9.51313 8.11538C9.75732 8.04928 10.0714 7.87751 10.292 7.84299C10.8423 7.7571 11.5576 7.83246 11.9192 8.2981L16.1386 15.3475C16.179 15.5525 16.1537 15.7171 16.0009 15.8632C15.8725 15.9862 14.9332 16.5272 14.7783 16.5339C14.6233 16.5406 14.4208 16.4295 14.348 16.2973L12.1962 12.6998C12.0325 12.5158 11.7558 12.5469 11.6388 12.7621L11.6081 26.1868C11.5891 26.3847 11.4241 26.599 11.23 26.6495C11.0195 26.7042 9.64617 26.7042 9.40199 26.6667C9.20621 26.6364 9.04244 26.4735 8.97761 26.2925L8.95866 19.7938C8.92119 19.5113 8.74647 19.3837 8.47408 19.353C8.25263 19.3281 7.64385 19.3252 7.4325 19.3626C7.28094 19.3896 7.09443 19.5083 7.06791 19.6708L7.06707 26.0192C7.07464 26.2718 6.88393 26.6255 6.62164 26.6672C6.33872 26.7122 5.32072 26.7063 5.02475 26.6705C4.72878 26.6347 4.55785 26.3443 4.54059 26.0613L4.5448 12.8538C4.53343 12.5301 4.14189 12.4328 3.95286 12.6875C3.2363 13.7759 2.64436 15.0065 1.92654 16.0859C1.68825 16.4446 1.51774 16.5886 1.0921 16.3903C0.742661 16.2274 0.210505 15.8885 0.000421009 15.5685V15.3163L0 15.3176Z" fill="#0F68C0"/>
        <path d="M7.60215 0.0235917C11.2165 -0.359527 13.0972 4.03623 10.3648 6.3181C8.25008 8.08382 4.9481 6.82584 4.54688 4.10654C4.26312 2.18632 5.63772 0.231991 7.60215 0.0235917Z" fill="#0F68C0"/>
    </g>
    <defs>
        <clipPath id="clip0_420_1204">
            <rect width="16.1558" height="26.7" fill="white"/>
        </clipPath>
    </defs>
</svg>
