<svg width="12" height="12" viewBox="0 0 12 12" fill="none" xmlns="http://www.w3.org/2000/svg">
    <path d="M7.9999 8.53063L9.03376 7.49674C9.17214 7.35832 9.34808 7.26354 9.5398 7.22416C9.73152 7.18478 9.93058 7.20252 10.1123 7.27519L11.3715 7.77889C11.5571 7.85314 11.7161 7.98132 11.8282 8.14688C11.9402 8.31244 12.0001 8.50777 12 8.70768V10.9976C12.0003 11.1337 11.9728 11.2684 11.9193 11.3935C11.8657 11.5186 11.7872 11.6315 11.6885 11.7252C11.5898 11.8189 11.473 11.8915 11.3453 11.9385C11.2175 11.9855 11.0816 12.0059 10.9457 11.9985C2.12 11.4491 0.337637 3.97465 0.00647594 1.11139C-0.00954773 0.97142 0.00424616 0.829648 0.0469502 0.695397C0.0896542 0.561146 0.1603 0.437458 0.254241 0.332472C0.348181 0.227486 0.463286 0.143582 0.591983 0.0862785C0.72068 0.0289754 0.860051 -0.000427373 1.00093 4.69362e-06H3.24996C3.44983 9.67983e-07 3.64511 0.0598887 3.81061 0.171941C3.97611 0.283994 4.10424 0.443069 4.17846 0.628644L4.68215 1.88777C4.75481 2.0695 4.77255 2.26855 4.73317 2.46026C4.69379 2.65198 4.59902 2.82792 4.4606 2.96629L3.42673 4.00017C3.42673 4.00017 3.99984 8.03062 7.9999 8.53063Z" fill="#B4B4B4"/>
</svg>
