<svg width="20" height="20" viewBox="0 0 20 20" fill="none" xmlns="http://www.w3.org/2000/svg">
    <path d="M14.2349 13.0859C13.6657 13.0859 13.1564 13.3106 12.7669 13.6626L7.42657 10.5543C7.46402 10.382 7.49398 10.2098 7.49398 10.03C7.49398 9.85024 7.46402 9.67797 7.42657 9.5057L12.707 6.42733C13.1114 6.80183 13.6432 7.03401 14.2349 7.03401C15.4783 7.03401 16.4819 6.03036 16.4819 4.78703C16.4819 3.54369 15.4783 2.54004 14.2349 2.54004C12.9916 2.54004 11.988 3.54369 11.988 4.78703C11.988 4.96679 12.0179 5.13906 12.0554 5.31132L6.77494 8.3897C6.37048 8.0152 5.83869 7.78301 5.24699 7.78301C4.00365 7.78301 3 8.78667 3 10.03C3 11.2733 4.00365 12.277 5.24699 12.277C5.83869 12.277 6.37048 12.0448 6.77494 11.6703L12.1078 14.7861C12.0703 14.9434 12.0479 15.1082 12.0479 15.273C12.0479 16.4789 13.0291 17.46 14.2349 17.46C15.4408 17.46 16.422 16.4789 16.422 15.273C16.422 14.0671 15.4408 13.0859 14.2349 13.0859ZM14.2349 4.03803C14.6469 4.03803 14.9839 4.37508 14.9839 4.78703C14.9839 5.19897 14.6469 5.53602 14.2349 5.53602C13.823 5.53602 13.4859 5.19897 13.4859 4.78703C13.4859 4.37508 13.823 4.03803 14.2349 4.03803ZM5.24699 10.779C4.83504 10.779 4.49799 10.4419 4.49799 10.03C4.49799 9.61805 4.83504 9.281 5.24699 9.281C5.65894 9.281 5.99598 9.61805 5.99598 10.03C5.99598 10.4419 5.65894 10.779 5.24699 10.779ZM14.2349 16.0369C13.823 16.0369 13.4859 15.6999 13.4859 15.288C13.4859 14.876 13.823 14.539 14.2349 14.539C14.6469 14.539 14.9839 14.876 14.9839 15.288C14.9839 15.6999 14.6469 16.0369 14.2349 16.0369Z" fill="#004D99"/>
</svg>
