<svg width="16" height="27" viewBox="0 0 16 27" fill="none" xmlns="http://www.w3.org/2000/svg">
    <g clip-path="url(#clip0_420_1195)">
        <path d="M11.2978 26.4146C11.2308 26.4821 11.097 26.5437 10.9989 26.5554C10.6715 26.5948 9.73283 26.5948 9.40541 26.5554C9.07799 26.516 8.94971 26.2066 8.9233 25.9069C8.79962 24.4924 9.0172 22.8985 8.92707 21.4651C8.9321 21.367 8.83148 21.2605 8.74638 21.227C8.60678 21.1712 7.70836 21.1721 7.52474 21.1977C7.35453 21.2215 7.25643 21.3125 7.21786 21.4769L7.18809 26.179C7.10593 26.3743 6.98435 26.5194 6.76425 26.5508C6.4318 26.5982 5.38833 26.5965 5.05001 26.5554C4.8056 26.5261 4.62575 26.3479 4.57208 26.1123C4.46728 24.6421 4.70247 22.9987 4.57125 21.549C4.54861 21.2983 4.46266 21.2232 4.21322 21.1951C3.53742 21.1184 2.64655 21.2953 1.99632 21.1926C1.61272 21.1318 1.81437 20.7357 1.88816 20.5034C2.6826 18.0056 3.69966 15.569 4.50794 13.0742C4.63748 12.6684 4.28156 12.3384 3.9403 12.6436C3.19826 13.7349 2.61343 15.0538 1.86426 16.1249C1.7473 16.2922 1.63578 16.4511 1.40353 16.4612C1.23625 16.4683 0.317296 15.9426 0.174338 15.8122C0.00580642 15.6588 -0.0260552 15.4554 0.0141911 15.2378L4.04888 8.51168C4.36121 7.86942 5.10954 7.75664 5.75851 7.84175C5.99412 7.87277 6.34208 8.05807 6.60285 8.12808C7.62032 8.401 8.62271 8.35154 9.62635 8.05975C9.83345 7.99938 10.0229 7.86229 10.2422 7.83839C10.978 7.75748 11.4823 7.86103 11.9137 8.47018C13.3516 10.5001 14.4672 12.9828 15.8821 15.0534C16.0108 15.2718 16.0486 15.499 15.9102 15.7246C15.8272 15.86 14.946 16.3958 14.7775 16.4356C14.5368 16.4926 14.3431 16.3815 14.2073 16.1836L12.1065 12.6734C11.8567 12.372 11.455 12.5912 11.5171 12.9681L14.2823 20.962C14.2635 21.097 14.1826 21.1717 14.0505 21.1926C13.3856 21.297 12.4767 21.113 11.7908 21.1943C11.6621 21.2094 11.5775 21.2593 11.4995 21.3632L11.4781 25.9895C11.4638 26.119 11.3875 26.3228 11.2962 26.4146H11.2978Z" fill="#0F68C0"/>
        <path d="M7.49286 0.0205409C10.0586 -0.240641 12.07 2.01399 11.3745 4.5298C10.6153 7.27703 7.00907 7.99141 5.19924 5.80595C3.44685 3.69008 4.75779 0.298911 7.49286 0.0205409Z" fill="#0F68C0"/>
    </g>
    <defs>
        <clipPath id="clip0_420_1195">
            <rect width="16" height="26.586" fill="white"/>
        </clipPath>
    </defs>
</svg>
