<svg width="22" height="22" viewBox="0 0 22 22" fill="none" xmlns="http://www.w3.org/2000/svg">
    <path d="M17.6883 6.19256C17.6883 6.34992 17.6573 6.50576 17.5971 6.65114C17.5369 6.79653 17.4485 6.92864 17.3374 7.03992C17.2261 7.1512 17.0939 7.23946 16.9485 7.29969C16.8031 7.35991 16.6473 7.39091 16.49 7.39091C16.3326 7.39091 16.1768 7.35991 16.0313 7.29969C15.886 7.23946 15.7539 7.1512 15.6426 7.03992C15.5313 6.92864 15.443 6.79653 15.3828 6.65114C15.3225 6.50576 15.2916 6.34992 15.2916 6.19256C15.2916 5.87473 15.4178 5.56993 15.6426 5.34519C15.8674 5.12046 16.1721 4.9942 16.49 4.9942C16.8078 4.9942 17.1126 5.12046 17.3374 5.34519C17.562 5.56993 17.6883 5.87473 17.6883 6.19256ZM21.493 11.602V11.6175L21.4244 15.9606C21.407 17.5268 20.777 19.0241 19.6695 20.1318C18.5621 21.2395 17.0649 21.8698 15.4987 21.8876L11.1401 21.9549H11.1245L6.78147 21.8863C5.21516 21.8689 3.71792 21.2389 2.61019 20.1315C1.50245 19.024 0.87223 17.5268 0.854403 15.9606L0.787109 11.602V11.5864L0.855698 7.24338C0.873181 5.67707 1.50307 4.17983 2.61056 3.0721C3.71806 1.96436 5.21516 1.33414 6.78147 1.31632L11.1401 1.24902H11.1556L15.4987 1.31761C17.0649 1.3351 18.5622 1.96498 19.6699 3.07248C20.7776 4.17997 21.4079 5.67707 21.4257 7.24338L21.493 11.602ZM19.5648 11.602L19.4975 7.27314C19.4853 6.20845 19.057 5.19078 18.3042 4.43787C17.5513 3.68498 16.5336 3.25666 15.4689 3.24456L11.1401 3.17726L6.81123 3.24456C5.74654 3.25666 4.72887 3.68498 3.97596 4.43787C3.22307 5.19078 2.79474 6.20845 2.78264 7.27314L2.71535 11.602L2.78264 15.9308C2.79474 16.9955 3.22307 18.0132 3.97596 18.7661C4.72887 19.519 5.74654 19.9472 6.81123 19.9594L11.1401 20.0267L15.4689 19.9594C16.5336 19.9472 17.5513 19.519 18.3042 18.7661C19.057 18.0132 19.4853 16.9955 19.4975 15.9308L19.5648 11.602ZM16.4563 11.602C16.4563 13.0119 15.8962 14.3641 14.8992 15.3611C13.9022 16.3581 12.55 16.9182 11.1401 16.9182C9.7301 16.9182 8.37789 16.3581 7.3809 15.3611C6.38391 14.3641 5.82382 13.0119 5.82382 11.602C5.82382 10.192 6.38391 8.8398 7.3809 7.84281C8.37789 6.84583 9.7301 6.28573 11.1401 6.28573C12.55 6.28573 13.9022 6.84583 14.8992 7.84281C15.8962 8.8398 16.4563 10.192 16.4563 11.602ZM14.5281 11.602C14.5281 10.7034 14.1712 9.84166 13.5358 9.20628C12.9004 8.57091 12.0386 8.21397 11.1401 8.21397C10.2415 8.21397 9.37974 8.57091 8.74437 9.20628C8.109 9.84166 7.75206 10.7034 7.75206 11.602C7.75206 12.5005 8.109 13.3622 8.74437 13.9977C9.37974 14.6331 10.2415 14.99 11.1401 14.99C12.0386 14.99 12.9004 14.6331 13.5358 13.9977C14.1712 13.3622 14.5281 12.5005 14.5281 11.602Z" fill="white"/>
</svg>
