<svg width="22" height="15" viewBox="0 0 22 15" fill="none" xmlns="http://www.w3.org/2000/svg">
    <path d="M10.667 0C10.7229 7.9571e-06 17.3436 0.00165024 19.001 0.448242C19.9188 0.695181 20.6423 1.42299 20.8877 2.34668C21.3306 4.01022 21.333 7.46949 21.333 7.51465C21.333 7.51465 21.3335 11.0092 20.8877 12.6836C20.6422 13.6073 19.9188 14.3048 19.001 14.5518C17.3436 14.9984 10.7228 15 10.667 15C10.667 15 3.99622 15.0003 2.33203 14.5518C1.41424 14.3048 0.69069 13.6073 0.445312 12.6836C0.00257083 11.0206 2.04947e-05 7.5626 0 7.51562C0 7.51562 -0.00046213 4.02112 0.445312 2.34668C0.690692 1.42294 1.41425 0.695183 2.33203 0.448242C3.99624 -0.000329443 10.667 0 10.667 0ZM8.48535 10.6875L14.0605 7.51562L8.48535 4.34277V10.6875Z" fill="white"/>
</svg>
