<svg width="46" height="46" viewBox="0 0 46 46" fill="none" xmlns="http://www.w3.org/2000/svg">
    <g clip-path="url(#clip0_278_1203)">
        <path d="M0.117607 18.1951C0.662122 13.9019 8.63976 12.564 12.0501 12.7774C14.8571 12.9521 21.137 14.6302 21.507 18.0572C21.2472 21.2212 21.8569 24.9543 21.4969 28.0503C21.2738 29.9666 19.4832 31.7449 17.6624 32.2L17.6679 46.0009H15.7488V20.5803H17.6679V30.1238C18.8148 29.6843 19.5668 28.5229 19.6669 27.3129C19.5108 24.5608 19.9148 21.5025 19.6816 18.7872C19.4823 16.471 15.8452 15.4035 13.9371 15.0108C11.9601 14.6044 10.2237 14.5778 8.23574 14.9189C6.43416 15.2278 2.22955 16.3984 2.03305 18.6024C2.27087 21.451 1.72269 24.8008 2.04682 27.5896C2.16987 28.6498 3.01373 29.8185 4.04766 30.1229V20.5794H5.96678V45.999H4.04766L4.05317 32.1982C1.98163 31.6529 0.48582 29.9362 0.116689 27.8287C0.393996 24.8201 -0.254279 21.1191 0.116689 18.1932L0.117607 18.1951Z" fill="#275199"/>
        <path d="M27.4489 46V23.5172H29.368V32.1431C30.3441 32.0024 31.3183 31.3183 31.3679 30.2507C31.2256 27.4839 31.5965 24.4606 31.3826 21.7242C31.2862 20.4939 30.5204 19.7905 29.5213 19.1882C27.503 17.9717 24.9311 17.5938 22.6042 17.5515V15.7161C24.9412 15.6012 27.3681 16.0324 29.4929 17.0136C31.1209 17.7657 32.8077 18.9537 33.1842 20.8323C33.0226 24.0211 33.4808 27.5759 33.2108 30.7224C33.0391 32.7269 31.1016 33.7807 29.3643 34.2211L29.3689 45.9991H27.4498L27.4489 46Z" fill="#275199"/>
        <path d="M41.9818 46H40.1536V27.4628H41.9818V36.0886C42.7072 36.0077 43.8678 35.3448 43.9872 34.5687C43.799 31.5822 44.2581 28.2471 43.9964 25.3019C43.8467 23.6147 41.2573 22.5352 39.8579 22.1149C38.0701 21.5789 36.2465 21.3269 34.3971 21.6782L34.1189 19.8006C35.8746 19.4291 37.6706 19.5937 39.4052 19.9992C41.9092 20.5849 45.6584 22.148 45.9155 25.118C46.1726 28.088 45.7217 31.5776 45.9008 34.6533C45.7043 36.1034 44.7172 37.1111 43.4151 37.6637C42.9808 37.8476 42.5217 37.8909 42.136 38.0315C42.0635 38.0582 42.0111 38.0812 41.9937 38.164L41.9818 45.9981V46Z" fill="#275199"/>
        <path d="M11.8176 30.3997H9.89844V46H11.8176V30.3997Z" fill="#275199"/>
        <path d="M22.8594 2.98838C27.6407 2.46702 28.7435 6.49813 28.3514 10.429C27.7922 16.0435 19.2425 16.0325 18.6842 10.429C18.3545 7.11971 18.9055 3.41963 22.8594 2.98838ZM22.9476 4.91198C22.011 5.04071 21.1772 5.66965 20.8237 6.54226C20.5069 7.32292 20.4977 9.46353 20.6033 10.3389C20.9908 13.5378 26.1531 13.57 26.4461 10.1688C26.6729 7.54084 26.4369 4.432 22.9476 4.9129V4.91198Z" fill="#275199"/>
        <path d="M36.2951 6.93304C41.317 6.33077 42.395 10.326 41.9818 14.4776C41.4483 19.8438 32.8554 20.1178 32.3054 14.0997C32.0263 11.0423 32.6323 7.37257 36.2951 6.93304ZM37.0261 8.76745C34.1593 8.84469 34.0115 11.7053 34.2144 13.9259C34.5395 17.4917 39.4006 17.4871 40.0416 14.4564C40.5558 12.0253 40.2032 8.68286 37.027 8.76837L37.0261 8.76745Z" fill="#275199"/>
        <path d="M10.1521 0.0505459C15.0472 -0.507593 16.0866 3.70189 15.6468 7.67783C15.0619 12.9751 6.48464 13.2647 5.97869 7.21716C5.71148 4.01177 6.36067 0.482712 10.1521 0.0505459ZM10.2421 1.97507C7.7215 2.3208 7.6912 5.22091 7.89872 7.21716C8.22561 10.3637 12.7103 10.6625 13.5973 8.00609C13.9655 6.90452 13.9802 4.12578 13.32 3.15111C12.6598 2.17644 11.4146 1.81507 10.2421 1.97599V1.97507Z" fill="#275199"/>
    </g>
    <defs>
        <clipPath id="clip0_278_1203">
            <rect width="46" height="46" fill="white"/>
        </clipPath>
    </defs>
</svg>
